<svg id="Capa_1" data-name="Capa 1" xmlns="http://www.w3.org/2000/svg" viewBox="0 0 511.84 512">
  <defs>
    <style>
      .cls-1 {
        fill: #fff;
      }
    </style>
  </defs>
  <g>
    <path class="cls-1" d="M242.06,102.87a7.61,7.61,0,0,0-7.61,7.61v20.17a7.61,7.61,0,1,0,15.22,0V110.48A7.61,7.61,0,0,0,242.06,102.87Z" transform="translate(-0.08)"/>
    <path class="cls-1" d="M242.06,157.17a7.61,7.61,0,0,0-7.61,7.61V185a7.61,7.61,0,0,0,15.22,0V164.78A7.61,7.61,0,0,0,242.06,157.17Z" transform="translate(-0.08)"/>
    <path class="cls-1" d="M279.3,140.1H259.13a7.61,7.61,0,1,0,0,15.22H279.3a7.61,7.61,0,1,0,0-15.22Z" transform="translate(-0.08)"/>
    <path class="cls-1" d="M225,140.1H204.83a7.61,7.61,0,1,0,0,15.22H225a7.61,7.61,0,1,0,0-15.22Z" transform="translate(-0.08)"/>
    <path class="cls-1" d="M450.66,210.37a7.61,7.61,0,0,0-7.61,7.61v20.17a7.61,7.61,0,1,0,15.22,0V218A7.61,7.61,0,0,0,450.66,210.37Z" transform="translate(-0.08)"/>
    <path class="cls-1" d="M450.66,264.67a7.62,7.62,0,0,0-7.61,7.62v20.17a7.61,7.61,0,1,0,15.22,0V272.29A7.61,7.61,0,0,0,450.66,264.67Z" transform="translate(-0.08)"/>
    <path class="cls-1" d="M487.9,247.61H467.73a7.61,7.61,0,0,0,0,15.22H487.9a7.61,7.61,0,1,0,0-15.22Z" transform="translate(-0.08)"/>
    <path class="cls-1" d="M433.6,247.61H413.43a7.61,7.61,0,0,0,0,15.22H433.6a7.61,7.61,0,0,0,0-15.22Z" transform="translate(-0.08)"/>
    <path class="cls-1" d="M495.83,80.49,473,75.85a49.53,49.53,0,0,1-38.78-38.78L429.53,14.2a17.72,17.72,0,0,0-34.73,0l-4.64,22.87a49.53,49.53,0,0,1-38.78,38.78l-22.87,4.64a17.72,17.72,0,0,0,0,34.74l22.87,4.63a49.54,49.54,0,0,1,38.78,38.79l4.64,22.87a17.72,17.72,0,0,0,34.73,0l4.64-22.87A49.55,49.55,0,0,1,473,119.86l22.88-4.63a17.72,17.72,0,0,0,0-34.74Zm-3,19.82-22.87,4.63a64.74,64.74,0,0,0-50.68,50.68l-4.63,22.87a2.5,2.5,0,0,1-4.9,0l-4.64-22.87a64.74,64.74,0,0,0-50.67-50.68l-22.88-4.63a2.5,2.5,0,0,1,0-4.9l22.88-4.64A64.72,64.72,0,0,0,405.08,40.1l4.64-22.88a2.5,2.5,0,0,1,4.9,0l4.63,22.88a64.74,64.74,0,0,0,50.68,50.67l22.87,4.64a2.5,2.5,0,0,1,0,4.9Z" transform="translate(-0.08)"/>
    <path class="cls-1" d="M405.6,360.31a7.62,7.62,0,0,0-9.7-4.68,188.82,188.82,0,0,1-97.86,7,7.61,7.61,0,0,0-2.9,14.94A204,204,0,0,0,400.91,370,7.63,7.63,0,0,0,405.6,360.31Z" transform="translate(-0.08)"/>
    <path class="cls-1" d="M506.51,266.9a7.61,7.61,0,0,0-8.83,3.54,189,189,0,0,1-72.62,72.13,7.61,7.61,0,1,0,7.39,13.31,203.23,203.23,0,0,0,45.12-34.06,206.25,206.25,0,0,0,14.62-16.27,241.05,241.05,0,1,1-456.91-146,7.61,7.61,0,0,0-14-6.07A256.28,256.28,0,1,0,511.9,274.74,7.61,7.61,0,0,0,506.51,266.9Z" transform="translate(-0.08)"/>
    <path class="cls-1" d="M245.22,5.6A7.6,7.6,0,0,0,237.37.22,256.72,256.72,0,0,0,36.64,123.79a7.61,7.61,0,0,0,13,7.85A241.56,241.56,0,0,1,206.57,19.93,203.21,203.21,0,0,0,168,295.34a7.61,7.61,0,1,0,12.42-8.79,188.09,188.09,0,0,1,61.3-272.11A7.61,7.61,0,0,0,245.22,5.6Z" transform="translate(-0.08)"/>
    <path class="cls-1" d="M313.67,316.74l-19.41-3.94a40.88,40.88,0,0,1-32-32l-3.94-19.41a16.19,16.19,0,0,0-31.73,0l-3.93,19.41a40.89,40.89,0,0,1-32,32l-19.41,3.94a16.19,16.19,0,0,0,0,31.73l19.41,3.93a40.89,40.89,0,0,1,32,32l3.93,19.41a16.19,16.19,0,0,0,31.73,0l3.94-19.41a40.87,40.87,0,0,1,32-32l19.41-3.93a16.19,16.19,0,0,0,0-31.73Zm-3,16.81-19.4,3.93a56.07,56.07,0,0,0-43.9,43.9l-3.94,19.41c-.07.36-.15.77-.94.77s-.87-.41-1-.77l-3.93-19.41a56.1,56.1,0,0,0-43.9-43.9l-19.41-3.93c-.36-.07-.77-.16-.77-.95s.41-.87.77-.94l19.41-3.94a56.1,56.1,0,0,0,43.9-43.9l3.93-19.4c.07-.37.16-.78,1-.78s.87.41.94.78l3.94,19.4a56.06,56.06,0,0,0,43.9,43.9l19.4,3.94c.37.07.78.15.78.94S311,333.47,310.64,333.55Z" transform="translate(-0.08)"/>
  </g>
</svg>
